<?xml version="1.0" standalone="no"?>
<!DOCTYPE svg PUBLIC "-//W3C//DTD SVG 20010904//EN"
 "http://www.w3.org/TR/2001/REC-SVG-20010904/DTD/svg10.dtd">
<svg version="1.0" xmlns="http://www.w3.org/2000/svg"
 width="1997.000000pt" height="1997.000000pt" viewBox="0 0 1997.000000 1997.000000"
 preserveAspectRatio="xMidYMid meet">
<metadata>
Created by potrace 1.11, written by Peter Selinger 2001-2013
</metadata>
<g transform="translate(0.000000,1997.000000) scale(0.100000,-0.100000)"
fill="#000000" stroke="none">
<path d="M8635 19963 c-157 -18 -342 -74 -480 -146 -346 -180 -610 -559 -660
-947 -4 -30 -9 -64 -11 -75 -3 -11 -5 -72 -5 -135 -2 -618 381 -1134 949
-1279 171 -44 392 -59 537 -36 22 4 51 8 65 10 151 19 408 129 544 232 157
120 280 268 369 443 30 58 56 114 59 125 3 11 19 67 36 125 38 133 44 171 47
355 5 246 -42 451 -152 660 -24 47 -119 194 -132 205 -3 3 -23 24 -44 48 -107
121 -250 227 -402 297 -78 36 -185 77 -185 71 0 -2 -21 2 -47 10 -84 25 -175
36 -318 38 -77 1 -153 0 -170 -1z m295 -237 c88 -11 112 -16 131 -27 11 -5 19
-8 19 -5 0 7 87 -22 153 -51 201 -88 377 -260 471 -458 85 -177 116 -336 111
-565 -2 -80 -5 -154 -8 -165 -3 -11 -8 -40 -12 -65 -32 -195 -152 -421 -297
-557 -105 -98 -296 -202 -420 -229 -153 -33 -282 -42 -413 -29 -290 28 -541
165 -703 384 -100 135 -175 317 -200 488 -15 101 -8 379 12 468 64 293 199
502 421 650 202 135 471 193 735 161z"/>
<path d="M6018 19956 c-1 -2 -50 -6 -108 -9 -58 -4 -130 -11 -160 -17 -30 -6
-65 -13 -78 -16 -60 -12 -195 -60 -266 -95 -193 -96 -354 -233 -479 -410 -77
-109 -165 -301 -192 -419 -35 -155 -40 -197 -39 -360 0 -168 6 -220 40 -348
89 -346 297 -621 599 -795 74 -43 238 -111 288 -121 12 -2 42 -9 67 -14 125
-28 171 -34 300 -34 77 0 147 3 157 6 10 3 41 7 68 10 137 14 339 88 475 172
209 130 368 305 474 521 39 79 80 187 90 239 3 10 11 48 20 84 41 177 37 407
-9 605 -34 146 -79 254 -164 402 -80 139 -261 318 -413 408 -63 37 -186 95
-202 95 -8 0 -17 4 -20 9 -3 5 -16 11 -28 14 -13 3 -48 12 -78 20 -77 21 -170
37 -248 43 -37 3 -72 7 -79 9 -6 2 -13 2 -15 1z m203 -260 c261 -55 460 -180
607 -379 71 -95 150 -271 168 -371 3 -16 7 -32 9 -36 18 -29 27 -393 13 -485
-67 -422 -339 -737 -724 -835 -115 -30 -158 -35 -299 -34 -175 0 -251 13 -390
65 -352 133 -573 423 -633 829 -9 63 -8 304 1 370 65 464 366 792 802 874 113
22 117 22 250 20 66 -1 154 -9 196 -18z"/>
<path d="M553 19928 c2 -7 32 -107 67 -223 34 -115 116 -390 182 -610 66 -220
121 -407 123 -415 3 -16 116 -394 140 -470 7 -25 32 -106 54 -180 21 -74 85
-288 141 -475 56 -187 113 -378 126 -425 14 -47 31 -105 39 -130 7 -25 27 -90
43 -145 17 -55 44 -147 62 -205 17 -58 37 -125 44 -150 7 -25 29 -99 49 -165
20 -66 67 -226 105 -355 39 -129 104 -347 145 -485 41 -137 77 -259 80 -270 3
-11 26 -90 52 -175 93 -310 104 -347 145 -485 23 -77 54 -183 70 -235 16 -52
72 -241 125 -420 53 -179 128 -431 167 -560 39 -129 74 -248 78 -265 4 -16 17
-59 28 -95 12 -36 32 -103 46 -150 46 -158 138 -465 158 -530 11 -36 23 -78
28 -95 13 -46 86 -292 110 -370 27 -88 49 -162 150 -505 45 -151 93 -311 107
-355 13 -44 26 -87 28 -95 2 -8 38 -130 80 -270 42 -140 78 -262 80 -270 1 -8
17 -62 35 -120 52 -170 81 -268 240 -805 84 -280 185 -620 225 -755 40 -135
78 -261 83 -280 6 -19 20 -66 32 -105 12 -38 23 -77 25 -86 2 -8 17 -60 34
-115 27 -88 153 -510 231 -774 15 -52 65 -219 110 -370 45 -151 95 -318 110
-370 38 -129 78 -262 140 -470 29 -96 58 -195 65 -220 7 -25 34 -112 58 -195
25 -82 81 -271 125 -420 99 -334 149 -501 161 -540 5 -16 21 -70 36 -120 15
-49 37 -124 50 -165 39 -130 59 -197 170 -575 34 -115 66 -223 155 -520 40
-132 84 -283 100 -335 88 -299 145 -488 177 -590 19 -63 38 -128 43 -145 4
-16 19 -68 33 -115 14 -47 62 -209 107 -360 45 -151 95 -320 111 -375 17 -55
43 -143 59 -195 114 -377 276 -924 300 -1010 10 -36 29 -99 42 -140 l24 -75
1157 -3 c922 -2 1157 0 1158 10 0 7 1 604 1 1326 l1 1312 41 0 c23 1 500 1
1061 1 l1021 0 -1 1630 c0 1440 2 1630 15 1633 8 2 481 3 1050 2 569 -1 1041
0 1048 2 9 3 12 339 12 1633 l0 1629 1060 0 1060 0 1 28 c0 15 1 748 1 1629 1
1147 4 1603 12 1606 6 2 482 3 1059 2 576 0 1048 2 1049 5 0 3 2 732 4 1620 1
888 3 1621 3 1628 1 9 220 12 1061 12 l1060 0 0 2115 0 2115 -595 0 -595 0 0
-1520 0 -1520 -1059 0 c-838 0 -1060 -3 -1063 -12 -2 -7 -4 -741 -3 -1630 0
-1443 -1 -1618 -15 -1619 -8 -1 -478 -2 -1045 -3 -566 -2 -1038 -4 -1047 -4
-16 -2 -17 -98 -17 -1594 0 -876 0 -1609 -1 -1629 l0 -37 -1055 0 c-581 0
-1058 -2 -1062 -5 -3 -3 -5 -738 -5 -1632 l0 -1625 -26 -1 c-15 0 -492 -1
-1059 -1 -568 -1 -1034 -4 -1034 -7 -1 -3 -3 -735 -4 -1626 -1 -891 -3 -1623
-4 -1627 0 -3 -439 -6 -973 -7 -535 0 -1012 0 -1060 -1 l-88 0 -1 -1717 c0
-945 -2 -1713 -4 -1708 -2 6 -33 109 -68 230 -108 363 -265 891 -307 1030 -21
72 -64 214 -94 318 -31 103 -80 269 -110 370 -30 100 -91 306 -136 457 -45
151 -116 388 -157 525 -167 557 -186 621 -193 650 -5 17 -20 68 -35 115 -14
47 -29 94 -32 105 -3 11 -18 63 -33 115 -16 52 -67 226 -115 385 -101 342
-127 428 -165 555 -16 52 -41 136 -55 185 -15 50 -36 119 -47 155 -11 36 -23
79 -28 95 -4 17 -19 68 -33 115 -99 329 -241 804 -295 990 -22 74 -68 227
-102 340 -90 301 -119 398 -139 470 -11 36 -35 119 -55 185 -20 66 -45 149
-55 185 -11 36 -34 112 -51 170 -17 58 -41 137 -52 175 -11 39 -24 81 -29 95
-5 14 -33 110 -64 213 -30 104 -57 192 -59 196 -3 4 -7 18 -10 32 -2 13 -21
78 -41 144 -20 66 -38 127 -40 135 -2 8 -27 92 -55 185 -28 94 -112 375 -187
625 -74 250 -155 523 -180 605 -25 83 -48 164 -53 180 -7 27 -87 295 -155 520
-61 202 -328 1102 -338 1140 -3 11 -17 58 -32 105 -14 47 -62 207 -106 355
-45 149 -105 353 -136 455 -30 102 -75 253 -99 335 -89 298 -123 413 -179 600
-32 105 -61 204 -65 220 -4 17 -49 167 -100 335 -168 560 -153 510 -322 1080
-22 74 -48 162 -58 195 -10 33 -46 152 -79 265 -33 113 -90 304 -126 425 -36
121 -82 274 -101 340 -54 181 -91 307 -249 835 -54 179 -98 330 -100 335 -1 6
-7 23 -13 38 -7 16 -12 33 -12 38 0 9 -98 344 -129 444 -6 17 -48 158 -95 315
-46 157 -105 355 -131 440 -26 85 -51 169 -55 185 -5 17 -19 66 -32 110 l-24
80 -623 3 c-497 2 -622 0 -618 -10z"/>
<path d="M2350 19931 c0 -8 108 -380 160 -551 11 -36 49 -166 86 -290 89 -304
198 -677 245 -835 21 -71 61 -209 89 -305 29 -96 70 -236 92 -310 45 -153 57
-195 65 -228 3 -13 14 -27 24 -30 14 -6 231 -7 334 -3 14 1 34 26 70 88 28 48
55 95 60 104 13 23 133 230 164 283 13 23 48 84 78 136 31 52 63 109 73 125
16 28 147 254 186 322 11 17 48 83 84 145 90 156 80 138 445 768 180 311 330
571 332 578 4 9 -29 12 -144 12 l-150 0 -278 -487 c-153 -269 -283 -497 -289
-508 -6 -11 -16 -27 -22 -35 -7 -8 -24 -37 -38 -65 -15 -27 -31 -57 -36 -65
-17 -26 -136 -236 -143 -251 -4 -8 -17 -30 -28 -49 -18 -31 -150 -261 -206
-360 -11 -19 -64 -111 -118 -205 -54 -93 -112 -195 -128 -225 -52 -96 -47
-101 -116 127 -34 115 -85 282 -113 373 -27 91 -63 208 -78 260 -16 52 -116
384 -224 736 -107 353 -202 667 -211 698 l-16 56 -125 0 c-68 0 -124 -4 -124
-9z"/>
<path d="M10326 19925 c-8 -8 -11 -374 -11 -1281 l1 -1269 127 -2 c125 -3 127
-3 128 20 0 12 1 263 2 557 l2 535 405 -1 c485 -1 520 -4 635 -58 143 -68 220
-191 239 -382 3 -32 8 -111 11 -174 10 -225 35 -401 67 -468 l13 -27 158 -3
157 -2 0 22 c0 13 -14 43 -30 66 -36 55 -67 136 -75 199 -4 26 -8 59 -10 73
-2 14 -7 95 -10 179 -4 85 -9 164 -11 175 -2 12 -7 37 -10 56 -4 19 -7 40 -8
45 -6 33 -42 123 -64 162 -52 94 -175 194 -285 234 -42 15 -39 19 46 50 169
62 321 202 384 354 57 135 61 323 12 467 -86 250 -307 421 -605 469 -105 16
-1252 20 -1268 4z m1248 -246 c85 -21 185 -66 226 -102 72 -63 124 -152 146
-247 17 -71 11 -221 -11 -285 -55 -162 -184 -269 -375 -311 -19 -4 -249 -9
-511 -11 l-477 -4 0 491 0 491 462 -2 c417 -1 469 -3 540 -20z"/>
<path d="M12464 19931 c-2 -3 -4 -372 -4 -820 1 -653 4 -835 15 -909 84 -550
483 -876 1060 -866 244 5 462 76 634 208 192 148 325 390 365 666 19 131 22
1719 3 1721 -66 6 -240 2 -243 -6 -2 -5 -5 -383 -7 -840 -2 -456 -7 -848 -11
-870 -54 -277 -178 -460 -378 -561 -279 -141 -689 -106 -909 77 -88 74 -153
168 -210 304 -16 37 -48 190 -55 260 -4 39 -7 420 -8 847 -1 427 -4 780 -9
784 -8 8 -235 12 -243 5z"/>
<path d="M14951 19918 c-3 -9 -6 -585 -5 -1280 l0 -1263 129 0 128 0 1 1273
c1 792 -3 1276 -8 1280 -6 3 -61 6 -124 6 -99 1 -115 -1 -121 -16z"/>
<path d="M15529 19932 c-12 -2 -15 -24 -14 -115 l0 -112 483 -3 c450 -2 482
-3 483 -20 0 -9 1 -532 2 -1162 l2 -1145 127 -3 127 -3 0 1093 c0 601 1 1126
1 1166 l0 72 483 0 483 0 0 115 c-1 63 -3 115 -6 116 -13 3 -2158 4 -2171 1z"/>
</g>
</svg>
