<svg id="Layer_1" data-name="Layer 1" xmlns="http://www.w3.org/2000/svg" viewBox="0 0 1887.01 1996.69"><defs><style>.cls-1{fill:#fff;}</style></defs><title>LOGO_Vooruit_wit</title><polygon class="cls-1" points="825.25 1731.62 1037.6 1731.62 1037.6 1405.21 1249.95 1405.21 1249.95 1078.79 1462.31 1078.79 1462.31 752.38 1674.66 752.38 1674.66 425.96 1887.01 425.96 1887.01 3.09 1767.91 3.09 1767.91 306.87 1555.56 306.87 1555.56 633.28 1343.21 633.28 1343.21 959.7 1130.86 959.7 1130.86 1286.11 918.5 1286.11 918.5 1612.53 706.15 1612.53 706.15 1957.26 124.26 3.09 0 3.09 593.63 1996.69 825.25 1996.69 825.25 1731.62"/><path class="cls-1" d="M544.67,1.76c76.53,0,130.73,58.59,130.73,131.83S621.2,265.43,544.67,265.43s-130.74-58.6-130.74-131.84S468.13,1.76,544.67,1.76Zm0,240.23c60.05,0,103.63-42.11,103.63-108.4,0-65.91-43.21-108.39-103.63-108.39S441,68,441,134C441,200.24,485.71,242,544.67,242Z"/><path class="cls-1" d="M823.38,0c76.54,0,130.73,58.59,130.73,131.83S899.92,263.66,823.38,263.66,692.65,205.07,692.65,131.83,746.84,0,823.38,0Zm0,240.23c60.06,0,103.63-42.12,103.63-108.4C927,65.92,883.8,23.44,823.38,23.44S719.75,66.28,719.75,132.2C719.75,198.48,764.42,240.23,823.38,240.23Z"/><path class="cls-1" d="M1139.58,259.86c-5.49-11-7.69-27.47-8.42-58.59-1.1-40.29-21.6-52.74-55.66-52.74h-73.24V259.86H976.63V3.52h111c50.9,0,80.92,32.59,80.92,69.58,0,30.76-16.84,53.1-52,64.08,26.74,9.16,41,26.73,41.75,64.45.36,25.27,1.83,41.38,12.82,53.83v4.4ZM1085,125.09c34.06,0,56-18.3,56-49.06S1119.08,27,1085,27h-82.76v98.13Z"/><path class="cls-1" d="M1216.66,3.66V153.07c0,54.56,27.1,87.16,78.73,87.16s78.73-32.6,78.73-87.16V3.66h25.64V157.47c0,59.32-37.35,106.19-104.37,106.19S1191,216.79,1191,157.47V3.66Z"/><path class="cls-1" d="M1439.62,3.66h25.64V260h-25.64Z"/><path class="cls-1" d="M1715.53,27.1h-96.68V260h-25.63V27.1h-96.68V3.66h219Z"/><polygon class="cls-1" points="409.31 3.09 275.65 236.68 204.77 3.09 179.49 3.09 254.93 259.33 291.18 259.33 439.63 3.09 409.31 3.09"/></svg>