<?xml version="1.0" encoding="utf-8"?>
<!-- Generator: Adobe Illustrator 23.0.3, SVG Export Plug-In . SVG Version: 6.00 Build 0)  -->
<svg version="1.1" id="Laag_1" focusable="false" xmlns="http://www.w3.org/2000/svg" xmlns:xlink="http://www.w3.org/1999/xlink"
	 x="0px" y="0px" viewBox="0 0 352 512" style="enable-background:new 0 0 352 512;" xml:space="preserve">
<style type="text/css">
	.st0{fill:#FFFFFF;}
</style>
<g>
	<path class="st0" d="M281.3,114c4.7,0,9.1,1.8,12.4,5.2l19.1,19.1c6.9,6.9,6.9,18,0,24.9l-86.1,86.1L220,256l6.7,6.7l86.1,86.1
		c6.9,6.9,6.9,18,0,24.9l-19.1,19.1c-3.3,3.3-7.7,5.2-12.4,5.2s-9.1-1.8-12.4-5.2l-86.1-86.1L176,300l-6.7,6.7l-86.1,86.1
		c-3.3,3.3-7.7,5.2-12.4,5.2s-9.1-1.8-12.4-5.2l-19.1-19.1c-6.9-6.9-6.9-18,0-24.9l86.1-86.1l6.7-6.7l-6.7-6.7l-86.1-86.1
		c-6.9-6.9-6.9-18,0-24.9l19.1-19.1c3.3-3.3,7.7-5.2,12.5-5.2c4.7,0,9.1,1.8,12.4,5.2l86.1,86.1l6.7,6.7l6.7-6.7l86.1-86.1
		C272.1,115.8,276.6,114,281.3,114"/>
</g>
</svg>
